<svg width="127" height="127" viewBox="0 0 127 127" fill="none" xmlns="http://www.w3.org/2000/svg">
<g id="Component 1">
<path id="Ellipse 96" d="M63.208 114.103C91.3165 114.103 114.103 91.3165 114.103 63.208C114.103 35.0995 91.3165 12.313 63.208 12.313C35.0995 12.313 12.313 35.0995 12.313 63.208C12.313 91.3165 35.0995 114.103 63.208 114.103Z" fill="#1AE417"/>
<path id="Ellipse 95" opacity="0.2" d="M63.208 126.416C98.1168 126.416 126.416 98.1168 126.416 63.208C126.416 28.2992 98.1168 0 63.208 0C28.2992 0 0 28.2992 0 63.208C0 98.1168 28.2992 126.416 63.208 126.416Z" fill="#1AE417"/>
<path id="Path 616" d="M57.272 84.968L39.335 61.907L49.766 53.794L58.258 64.713L86.947 34.429L96.541 43.517L57.272 84.968Z" fill="white"/>
</g>
</svg>
